<?xml version="1.0" encoding="utf-8"?>
<!-- Generator: Adobe Illustrator 19.2.1, SVG Export Plug-In . SVG Version: 6.00 Build 0)  -->
<svg version="1.1" id="layer" xmlns="http://www.w3.org/2000/svg" xmlns:xlink="http://www.w3.org/1999/xlink" x="0px" y="0px"
	 viewBox="0 0 652 652" style="enable-background:new 0 0 652 652;" xml:space="preserve">
<style type="text/css">
	.st0{fill:#0066B3;}
</style>
<polygon points="527.6,380 527.6,262.5 528,261.4 529.1,261.1 583.3,261.1 584.4,261.5 584.6,262.5 584.6,283.2 584.3,284.2 
	583.1,284.5 557.2,284.5 556.4,284.7 556.1,285.7 556.1,303.6 556.2,304.7 557.2,304.9 581.7,304.9 582.6,305.2 582.9,306.2 
	582.9,325.9 582.7,327.4 581.5,327.6 557.2,327.6 556.3,327.8 556.1,328.7 556.1,356.5 556.3,357.3 556.9,357.5 583.3,357.5 
	584.4,357.7 584.6,359 584.6,380 584.4,381.4 583.1,381.6 529.6,381.6 527.8,381.4 "/>
<path class="st0" d="M128,290.1l-66.2,40.3l0.5,28.4l129.7-78.9c0,0,12.2-6.5,24.8-5.5c12.7,1,23.2,4.9,31,12.1
	c4,3.7,15.4,13.9,15.7,33.6c0.2,15-4,25-8.9,30.8c-4.9,5.9-16.7,19.7-41.9,19.2c-21.2-0.4-33.1-15.3-33.1-15.3l67.5-40.5l-0.7-27.8
	l-90.2,54.8c0,0,2.3,22.2,2.1,26.2c13.6,13.6,22.4,19.8,32.6,22.8c11.9,3.4,31.1,5.2,46.4,0.7c23.9-7,40.1-26.7,45.3-40.2
	c5.5-14.2,10.2-43.5-1.8-62.1c-13.5-20.9-29.8-33.6-56.3-37.6c-31.4-4.7-52.6,12.4-74.5,25.6c-11.3-12.4-29.6-26.2-55-26.1
	c-30.4,0.1-48.4,15-58.6,27.2c-9.1,11-17.9,31.4-15.5,53.7c2.5,23,13.6,35.1,26.3,45.8c12.7,10.7,27.3,18.5,51.6,17.5
	c24.4-1,61.7-29.3,61.7-29.3l-1.5-26.3c0,0-44.6,32.5-67.2,31.4c-22.3-1.1-38-17.1-43.5-30c-5.1-12.1-4.4-27.4,1.5-39.1
	c12.2-24.4,36.2-27.8,45.7-27C107.6,275.4,123.2,281.2,128,290.1"/>
<polygon points="312.1,380.2 312.1,262.7 312.5,261.6 313.5,261.3 367.8,261.3 368.8,261.6 369.1,262.7 369.1,283.4 368.8,284.4 
	367.6,284.6 341.7,284.6 340.9,284.9 340.6,285.9 340.6,303.8 340.7,304.9 341.7,305.1 366.1,305.1 367.1,305.4 367.4,306.4 
	367.4,326.1 367.2,327.5 365.9,327.8 341.7,327.8 340.8,328 340.6,328.8 340.6,356.7 340.8,357.5 341.4,357.7 367.8,357.7 
	368.8,357.9 369.1,359.2 369.1,380.2 368.8,381.6 367.6,381.8 314.1,381.8 312.3,381.6 "/>
<path d="M377.1,380.2V262.5l0.5-1l1.5-0.3h23.6c6.9,4.5,9.7,16.6,13.9,16.8v-15.5l0.5-1.1l1.3-0.2h24.5l1.2,0.2l0.2,1.3V380
	l-0.2,1.6l-1.2,0.2h-24.5l-1.5-0.2l-0.3-1.4V346c-1.3-16.3-5.1-27.6-11-36.5v70.7l-0.2,1.4l-1.3,0.2h-24.8l-1.7-0.2L377.1,380.2z"/>
<path d="M454.4,261.3l-1.5,0.3l-0.5,1v117.6l0.2,1.4l1.4,0.2h26.1l1.3-0.2l0.2-1.4V334c0.7-2.6,4-5.1,5.3-4.9c1.6,0.2,4.4,6,5.3,15
	c0.7,6.8,1.5,36.2,1.5,36.2l0.4,1.4l1.6,0.2h24.3l1.2-0.2l0.2-1.4l-1.1-22.5c0,0-1.6-17-3.8-25.9c-2.2-8.9-3.5-13-4.6-15.7
	c-1.1-2.7-3.3-6.9-3.3-6.9s0.2-1.7,0.7-2.7c3.1-3.8,4.2-7.5,5.3-10c1.1-2.6,2.6-7.9,3.3-11.7c0.7-3.8,2.4-22.1,2.4-22.1l-0.4-1.1
	l-1.1-0.2h-24.5l-1.1,0.2l-0.3,1.1v7.1c0,2.2-0.7,6-2.6,13c-1.7,6.3-3.1,10-6.6,16.3c-0.5,1.3-1.6,0.4-1.6,0.4l-0.6-36.7l-0.2-1.1
	l-1.3-0.2H454.4z"/>
<polygon points="593.2,261.3 618.9,261.3 620.2,261.5 620.4,262.5 620.4,380.2 620.2,381.6 618.9,381.8 593.7,381.8 592.1,381.6 
	591.9,380.2 591.9,262.5 592.1,261.5 "/>
</svg>
